<svg width="29" height="24" viewBox="0 0 29 24" fill="none" xmlns="http://www.w3.org/2000/svg">
<g clip-path="url(#clip0_10_141)">
<path d="M10.8359 11H8.46475V13H10.8359V11ZM15.5782 11H13.207V13H15.5782V11ZM20.3204 11H17.9493V13H20.3204V11ZM22.6916 4H21.506V2H19.1349V4H9.65032V2H7.27918V4H6.09361C4.77763 4 3.73433 4.9 3.73433 6L3.72248 20C3.72248 21.1 4.77763 22 6.09361 22H22.6916C23.9957 22 25.0627 21.1 25.0627 20V6C25.0627 4.9 23.9957 4 22.6916 4ZM22.6916 20H6.09361V9H22.6916V20Z" fill="#C34622"/>
</g>
<defs>
<clipPath id="clip0_10_141">
<rect width="28.4536" height="24" fill="white" transform="translate(0.165771)"/>
</clipPath>
</defs>
</svg>
