<svg width="160" height="60" viewBox="0 0 160 60" fill="none" xmlns="http://www.w3.org/2000/svg">
<path d="M16.32 20.06V23.45H10.74V41H6.54V23.45H0.96V20.06H16.32ZM23.5845 26.96C24.1245 26.08 24.8245 25.39 25.6845 24.89C26.5645 24.39 27.5645 24.14 28.6845 24.14V28.55H27.5745C26.2545 28.55 25.2545 28.86 24.5745 29.48C23.9145 30.1 23.5845 31.18 23.5845 32.72V41H19.3845V24.38H23.5845V26.96ZM30.4334 32.63C30.4334 30.95 30.7634 29.46 31.4234 28.16C32.1034 26.86 33.0134 25.86 34.1534 25.16C35.3134 24.46 36.6034 24.11 38.0234 24.11C39.2634 24.11 40.3434 24.36 41.2634 24.86C42.2034 25.36 42.9534 25.99 43.5134 26.75V24.38H47.7434V41H43.5134V38.57C42.9734 39.35 42.2234 40 41.2634 40.52C40.3234 41.02 39.2334 41.27 37.9934 41.27C36.5934 41.27 35.3134 40.91 34.1534 40.19C33.0134 39.47 32.1034 38.46 31.4234 37.16C30.7634 35.84 30.4334 34.33 30.4334 32.63ZM43.5134 32.69C43.5134 31.67 43.3134 30.8 42.9134 30.08C42.5134 29.34 41.9734 28.78 41.2934 28.4C40.6134 28 39.8834 27.8 39.1034 27.8C38.3234 27.8 37.6034 27.99 36.9434 28.37C36.2834 28.75 35.7434 29.31 35.3234 30.05C34.9234 30.77 34.7234 31.63 34.7234 32.63C34.7234 33.63 34.9234 34.51 35.3234 35.27C35.7434 36.01 36.2834 36.58 36.9434 36.98C37.6234 37.38 38.3434 37.58 39.1034 37.58C39.8834 37.58 40.6134 37.39 41.2934 37.01C41.9734 36.61 42.5134 36.05 42.9134 35.33C43.3134 34.59 43.5134 33.71 43.5134 32.69ZM58.7754 37.13L62.9754 24.38H67.4454L61.2954 41H56.1954L50.0754 24.38H54.5754L58.7754 37.13ZM85.2544 32.33C85.2544 32.93 85.2144 33.47 85.1344 33.95H72.9844C73.0844 35.15 73.5044 36.09 74.2444 36.77C74.9844 37.45 75.8944 37.79 76.9744 37.79C78.5344 37.79 79.6444 37.12 80.3044 35.78H84.8344C84.3544 37.38 83.4344 38.7 82.0744 39.74C80.7144 40.76 79.0444 41.27 77.0644 41.27C75.4644 41.27 74.0244 40.92 72.7444 40.22C71.4844 39.5 70.4944 38.49 69.7744 37.19C69.0744 35.89 68.7244 34.39 68.7244 32.69C68.7244 30.97 69.0744 29.46 69.7744 28.16C70.4744 26.86 71.4544 25.86 72.7144 25.16C73.9744 24.46 75.4244 24.11 77.0644 24.11C78.6444 24.11 80.0544 24.45 81.2944 25.13C82.5544 25.81 83.5244 26.78 84.2044 28.04C84.9044 29.28 85.2544 30.71 85.2544 32.33ZM80.9044 31.13C80.8844 30.05 80.4944 29.19 79.7344 28.55C78.9744 27.89 78.0444 27.56 76.9444 27.56C75.9044 27.56 75.0244 27.88 74.3044 28.52C73.6044 29.14 73.1744 30.01 73.0144 31.13H80.9044ZM92.52 18.8V41H88.32V18.8H92.52ZM104.05 41.27C102.45 41.27 101.01 40.92 99.7296 40.22C98.4496 39.5 97.4396 38.49 96.6996 37.19C95.9796 35.89 95.6196 34.39 95.6196 32.69C95.6196 30.99 95.9896 29.49 96.7296 28.19C97.4896 26.89 98.5196 25.89 99.8196 25.19C101.12 24.47 102.57 24.11 104.17 24.11C105.77 24.11 107.22 24.47 108.52 25.19C109.82 25.89 110.84 26.89 111.58 28.19C112.34 29.49 112.72 30.99 112.72 32.69C112.72 34.39 112.33 35.89 111.55 37.19C110.79 38.49 109.75 39.5 108.43 40.22C107.13 40.92 105.67 41.27 104.05 41.27ZM104.05 37.61C104.81 37.61 105.52 37.43 106.18 37.07C106.86 36.69 107.4 36.13 107.8 35.39C108.2 34.65 108.4 33.75 108.4 32.69C108.4 31.11 107.98 29.9 107.14 29.06C106.32 28.2 105.31 27.77 104.11 27.77C102.91 27.77 101.9 28.2 101.08 29.06C100.28 29.9 99.8796 31.11 99.8796 32.69C99.8796 34.27 100.27 35.49 101.05 36.35C101.85 37.19 102.85 37.61 104.05 37.61Z" fill="#263238"/>
<path fill-rule="evenodd" clip-rule="evenodd" d="M138.483 37.7902L138.484 37.7885L138.501 37.745L141.5 22.6259V22.5768C141.5 22.2001 141.361 21.8713 141.058 21.674C140.793 21.5013 140.488 21.489 140.274 21.5053C140.048 21.5224 139.835 21.5788 139.688 21.6258C139.612 21.6499 139.548 21.6732 139.503 21.6908C139.48 21.6997 139.461 21.7072 139.448 21.7128L139.435 21.7183L122.715 28.2772L122.71 28.2789C122.701 28.2822 122.689 28.2866 122.675 28.2923C122.646 28.3034 122.607 28.3195 122.561 28.3403C122.471 28.3812 122.346 28.4444 122.22 28.531C122.005 28.6781 121.596 29.0264 121.665 29.5787C121.722 30.0361 122.037 30.3266 122.25 30.477C122.364 30.5576 122.473 30.6157 122.553 30.6538C122.593 30.673 122.627 30.6878 122.653 30.6982C122.666 30.7034 122.677 30.7076 122.685 30.7107L122.695 30.7147L122.702 30.7172L125.628 31.702C125.618 31.8856 125.636 32.0727 125.685 32.2573L127.15 37.8157C127.324 38.4748 127.92 38.9339 128.601 38.9334C129.212 38.9329 129.754 38.5633 129.984 38.0119L132.272 35.5658L136.201 38.5781L136.257 38.6025C136.614 38.7582 136.947 38.8076 137.252 38.7659C137.557 38.7243 137.799 38.5966 137.98 38.4512C138.159 38.3081 138.282 38.1466 138.359 38.025C138.398 37.9633 138.427 37.909 138.448 37.8681C138.458 37.8476 138.466 37.8302 138.472 37.8167L138.479 37.7993L138.482 37.7928L138.483 37.7902ZM127.135 31.875C127.102 31.7486 127.154 31.6153 127.264 31.5452L137.186 25.2443C137.186 25.2443 137.77 24.89 137.749 25.2443C137.749 25.2443 137.853 25.3069 137.54 25.5986C137.244 25.8757 130.469 32.4167 129.783 33.0786C129.744 33.1168 129.72 33.1607 129.706 33.2139L128.6 37.4334L127.135 31.875Z" fill="#C34622"/>
</svg>
