<svg width="161" height="60" viewBox="0 0 161 60" fill="none" xmlns="http://www.w3.org/2000/svg">
<path d="M16.82 20.06V23.45H11.24V41H7.04V23.45H1.46V20.06H16.82ZM24.0845 26.96C24.6245 26.08 25.3245 25.39 26.1845 24.89C27.0645 24.39 28.0645 24.14 29.1845 24.14V28.55H28.0745C26.7545 28.55 25.7545 28.86 25.0745 29.48C24.4145 30.1 24.0845 31.18 24.0845 32.72V41H19.8845V24.38H24.0845V26.96ZM30.9334 32.63C30.9334 30.95 31.2634 29.46 31.9234 28.16C32.6034 26.86 33.5134 25.86 34.6534 25.16C35.8134 24.46 37.1034 24.11 38.5234 24.11C39.7634 24.11 40.8434 24.36 41.7634 24.86C42.7034 25.36 43.4534 25.99 44.0134 26.75V24.38H48.2434V41H44.0134V38.57C43.4734 39.35 42.7234 40 41.7634 40.52C40.8234 41.02 39.7334 41.27 38.4934 41.27C37.0934 41.27 35.8134 40.91 34.6534 40.19C33.5134 39.47 32.6034 38.46 31.9234 37.16C31.2634 35.84 30.9334 34.33 30.9334 32.63ZM44.0134 32.69C44.0134 31.67 43.8134 30.8 43.4134 30.08C43.0134 29.34 42.4734 28.78 41.7934 28.4C41.1134 28 40.3834 27.8 39.6034 27.8C38.8234 27.8 38.1034 27.99 37.4434 28.37C36.7834 28.75 36.2434 29.31 35.8234 30.05C35.4234 30.77 35.2234 31.63 35.2234 32.63C35.2234 33.63 35.4234 34.51 35.8234 35.27C36.2434 36.01 36.7834 36.58 37.4434 36.98C38.1234 37.38 38.8434 37.58 39.6034 37.58C40.3834 37.58 41.1134 37.39 41.7934 37.01C42.4734 36.61 43.0134 36.05 43.4134 35.33C43.8134 34.59 44.0134 33.71 44.0134 32.69ZM59.2754 37.13L63.4754 24.38H67.9454L61.7954 41H56.6954L50.5754 24.38H55.0754L59.2754 37.13ZM85.7544 32.33C85.7544 32.93 85.7144 33.47 85.6344 33.95H73.4844C73.5844 35.15 74.0044 36.09 74.7444 36.77C75.4844 37.45 76.3944 37.79 77.4744 37.79C79.0344 37.79 80.1444 37.12 80.8044 35.78H85.3344C84.8544 37.38 83.9344 38.7 82.5744 39.74C81.2144 40.76 79.5444 41.27 77.5644 41.27C75.9644 41.27 74.5244 40.92 73.2444 40.22C71.9844 39.5 70.9944 38.49 70.2744 37.19C69.5744 35.89 69.2244 34.39 69.2244 32.69C69.2244 30.97 69.5744 29.46 70.2744 28.16C70.9744 26.86 71.9544 25.86 73.2144 25.16C74.4744 24.46 75.9244 24.11 77.5644 24.11C79.1444 24.11 80.5544 24.45 81.7944 25.13C83.0544 25.81 84.0244 26.78 84.7044 28.04C85.4044 29.28 85.7544 30.71 85.7544 32.33ZM81.4044 31.13C81.3844 30.05 80.9944 29.19 80.2344 28.55C79.4744 27.89 78.5444 27.56 77.4444 27.56C76.4044 27.56 75.5244 27.88 74.8044 28.52C74.1044 29.14 73.6744 30.01 73.5144 31.13H81.4044ZM93.02 18.8V41H88.82V18.8H93.02ZM104.55 41.27C102.95 41.27 101.51 40.92 100.23 40.22C98.9496 39.5 97.9396 38.49 97.1996 37.19C96.4796 35.89 96.1196 34.39 96.1196 32.69C96.1196 30.99 96.4896 29.49 97.2296 28.19C97.9896 26.89 99.0196 25.89 100.32 25.19C101.62 24.47 103.07 24.11 104.67 24.11C106.27 24.11 107.72 24.47 109.02 25.19C110.32 25.89 111.34 26.89 112.08 28.19C112.84 29.49 113.22 30.99 113.22 32.69C113.22 34.39 112.83 35.89 112.05 37.19C111.29 38.49 110.25 39.5 108.93 40.22C107.63 40.92 106.17 41.27 104.55 41.27ZM104.55 37.61C105.31 37.61 106.02 37.43 106.68 37.07C107.36 36.69 107.9 36.13 108.3 35.39C108.7 34.65 108.9 33.75 108.9 32.69C108.9 31.11 108.48 29.9 107.64 29.06C106.82 28.2 105.81 27.77 104.61 27.77C103.41 27.77 102.4 28.2 101.58 29.06C100.78 29.9 100.38 31.11 100.38 32.69C100.38 34.27 100.77 35.49 101.55 36.35C102.35 37.19 103.35 37.61 104.55 37.61Z" fill="white"/>
<path fill-rule="evenodd" clip-rule="evenodd" d="M138.983 36.7901L138.984 36.7883L139.001 36.7448L142 21.6258V21.5767C142 21.2 141.861 20.8711 141.558 20.6738C141.293 20.5012 140.988 20.4889 140.774 20.5051C140.548 20.5223 140.335 20.5787 140.188 20.6256C140.112 20.6498 140.048 20.6731 140.003 20.6907C139.98 20.6995 139.962 20.707 139.948 20.7126L139.935 20.7182L123.215 27.2771L123.21 27.2787C123.201 27.282 123.19 27.2865 123.175 27.2921C123.146 27.3033 123.107 27.3193 123.061 27.3402C122.971 27.3811 122.846 27.4442 122.72 27.5308C122.505 27.678 122.096 28.0263 122.165 28.5785C122.222 29.0359 122.537 29.3264 122.75 29.4768C122.864 29.5575 122.973 29.6156 123.053 29.6536C123.093 29.6729 123.127 29.6876 123.153 29.698C123.166 29.7032 123.177 29.7074 123.185 29.7106L123.196 29.7145L123.202 29.7171L126.128 30.7019C126.118 30.8854 126.136 31.0725 126.185 31.2572L127.65 36.8156C127.824 37.4746 128.42 37.9337 129.101 37.9332C129.712 37.9328 130.254 37.5632 130.484 37.0118L132.772 34.5657L136.701 37.5779L136.757 37.6023C137.114 37.7581 137.447 37.8074 137.752 37.7658C138.057 37.7242 138.299 37.5965 138.48 37.4511C138.659 37.308 138.782 37.1465 138.859 37.0249C138.898 36.9631 138.927 36.9088 138.948 36.8679C138.958 36.8474 138.966 36.8301 138.972 36.8165L138.979 36.7991L138.982 36.7927L138.983 36.7901ZM127.635 30.8748C127.602 30.7485 127.654 30.6151 127.764 30.5451L137.686 24.2442C137.686 24.2442 138.27 23.8899 138.249 24.2442C138.249 24.2442 138.353 24.3067 138.04 24.5985C137.744 24.8755 130.969 31.4166 130.283 32.0785C130.244 32.1167 130.22 32.1605 130.206 32.2137L129.1 36.4332L127.635 30.8748Z" fill="#C34622"/>
</svg>
