<svg width="21" height="14" viewBox="0 0 21 14" fill="none" xmlns="http://www.w3.org/2000/svg">
<path fill-rule="evenodd" clip-rule="evenodd" d="M14.4123 7.98877C15.6578 8.80252 16.5305 9.90502 16.5305 11.375V14H20.1669V11.375C20.1669 9.46752 16.9214 8.33877 14.4123 7.98877Z" fill="#C34622"/>
<path d="M7.43959 7C9.44789 7 11.076 5.433 11.076 3.5C11.076 1.567 9.44789 0 7.43959 0C5.43128 0 3.80322 1.567 3.80322 3.5C3.80322 5.433 5.43128 7 7.43959 7Z" fill="#C34622"/>
<path fill-rule="evenodd" clip-rule="evenodd" d="M12.8941 7C14.9032 7 16.5305 5.43375 16.5305 3.5C16.5305 1.56625 14.9032 0 12.8941 0C12.4669 0 12.0669 0.0874998 11.685 0.21C12.4396 1.11125 12.8941 2.2575 12.8941 3.5C12.8941 4.7425 12.4396 5.88875 11.685 6.79C12.0669 6.9125 12.4669 7 12.8941 7Z" fill="#C34622"/>
<path fill-rule="evenodd" clip-rule="evenodd" d="M7.43958 7.875C5.01231 7.875 0.166855 9.0475 0.166855 11.375V14H14.7123V11.375C14.7123 9.0475 9.86686 7.875 7.43958 7.875Z" fill="#C34622"/>
</svg>
