<svg width="58" height="49" viewBox="0 0 58 49" fill="none" xmlns="http://www.w3.org/2000/svg">
<path d="M9.33438 0.349163C10.8448 0.349163 11.9776 1.10017 12.7328 2.60218C13.488 4.10419 13.5333 5.66115 12.8687 7.27306L8.51875 17.9337H19.9375C21.4479 17.9337 22.7318 18.5748 23.7891 19.857C24.8464 21.1392 25.375 22.6961 25.375 24.5279L25.375 42.1124C25.375 43.9441 24.8464 45.501 23.7891 46.7832C22.7318 48.0654 21.4479 48.7065 19.9375 48.7065L5.4375 48.7065C3.92708 48.7065 2.64323 48.0654 1.58594 46.7832C0.528645 45.501 0 43.9441 0 42.1124L0 18.5931C0 18.0802 0.0453148 17.5673 0.135941 17.0544C0.226562 16.5416 0.362499 16.0653 0.543747 15.6257L5.8 2.98684C6.10209 2.18089 6.57031 1.53978 7.20469 1.06354C7.83906 0.587288 8.54896 0.349163 9.33438 0.349163ZM41.9594 0.349163C43.4698 0.349163 44.6026 1.10017 45.3578 2.60218C46.113 4.10419 46.1583 5.66115 45.4938 7.27306L41.1438 17.9337L52.5625 17.9337C54.0729 17.9337 55.3568 18.5748 56.4141 19.857C57.4714 21.1392 58 22.6961 58 24.5279L58 42.1124C58 43.9441 57.4714 45.501 56.4141 46.7832C55.3568 48.0654 54.0729 48.7065 52.5625 48.7065L38.0625 48.7065C36.5521 48.7065 35.2682 48.0654 34.2109 46.7832C33.1536 45.501 32.625 43.9441 32.625 42.1124L32.625 18.5931C32.625 18.0802 32.6703 17.5673 32.7609 17.0544C32.8516 16.5416 32.9875 16.0653 33.1687 15.6257L38.425 2.98684C38.7271 2.18089 39.1953 1.53978 39.8297 1.06354C40.4641 0.587288 41.174 0.349163 41.9594 0.349163Z" fill="#C34622"/>
</svg>
