<svg width="58" height="46" viewBox="0 0 58 46" fill="none" xmlns="http://www.w3.org/2000/svg">
<path d="M9.33438 8.39233e-05C10.8448 8.39233e-05 11.9776 0.706258 12.7328 2.1186C13.488 3.53093 13.5333 4.99494 12.8687 6.51062L8.51875 16.5348L19.9375 16.5348C21.4479 16.5348 22.7318 17.1376 23.7891 18.3432C24.8464 19.5489 25.375 21.0129 25.375 22.7353L25.375 39.27C25.375 40.9923 24.8464 42.4563 23.7891 43.662C22.7318 44.8676 21.4479 45.4705 19.9375 45.4705L5.4375 45.4705C3.92708 45.4705 2.64323 44.8676 1.58594 43.662C0.528646 42.4563 0 40.9923 0 39.27L0 17.1548C0 16.6726 0.0453155 16.1903 0.135941 15.708C0.226566 15.2258 0.362497 14.778 0.543747 14.3646L5.8 2.48029C6.10209 1.72245 6.57031 1.11962 7.20469 0.67181C7.83906 0.223996 8.54896 8.39233e-05 9.33438 8.39233e-05ZM41.9594 8.39233e-05C43.4698 8.39233e-05 44.6026 0.706258 45.3578 2.1186C46.113 3.53093 46.1583 4.99494 45.4938 6.51062L41.1438 16.5348L52.5625 16.5348C54.0729 16.5348 55.3568 17.1376 56.4141 18.3432C57.4714 19.5489 58 21.0129 58 22.7353L58 39.27C58 40.9923 57.4714 42.4563 56.4141 43.662C55.3568 44.8676 54.0729 45.4705 52.5625 45.4705L38.0625 45.4705C36.5521 45.4705 35.2682 44.8676 34.2109 43.662C33.1536 42.4563 32.625 40.9923 32.625 39.27L32.625 17.1548C32.625 16.6726 32.6703 16.1903 32.7609 15.708C32.8516 15.2258 32.9875 14.778 33.1687 14.3646L38.425 2.48029C38.7271 1.72245 39.1953 1.11962 39.8297 0.67181C40.4641 0.223996 41.174 8.39233e-05 41.9594 8.39233e-05Z" fill="#C34622"/>
</svg>
