<svg width="35" height="35" viewBox="0 0 35 35" fill="none" xmlns="http://www.w3.org/2000/svg">
<circle cx="18.0001" cy="18" r="17" fill="#C34622"/>
<path fill-rule="evenodd" clip-rule="evenodd" d="M15.1057 26.8797L15.1075 26.8791L15.152 26.8645L28.6615 19.4434L28.6991 19.4118C28.9877 19.1697 29.1501 18.8516 29.1065 18.4928C29.0684 18.1788 28.8819 17.9374 28.7321 17.7841C28.5737 17.622 28.3935 17.495 28.2627 17.4122C28.1954 17.3696 28.1367 17.3359 28.094 17.3124C28.0726 17.3006 28.055 17.2912 28.0421 17.2845L28.0293 17.278L12.2576 8.68588L12.2534 8.68341C12.245 8.67861 12.234 8.67232 12.2204 8.66488C12.1933 8.65005 12.1559 8.63036 12.1104 8.60854C12.021 8.56568 11.8925 8.51071 11.7448 8.46949C11.494 8.39948 10.9642 8.30997 10.5855 8.71786C10.2719 9.05571 10.2521 9.48397 10.2735 9.74349C10.285 9.8826 10.3105 10.0035 10.3327 10.0891C10.3439 10.1324 10.3547 10.1682 10.3632 10.1945C10.3674 10.2077 10.3711 10.2186 10.3741 10.227L10.3778 10.2377L10.3803 10.2445L11.5062 13.1184C11.3592 13.2288 11.2276 13.363 11.1174 13.519L7.80131 18.2143C7.40813 18.7711 7.4397 19.5229 7.87818 20.0447C8.27122 20.5124 8.90262 20.6899 9.47299 20.5118L12.8173 20.6919L13.0353 25.6379L13.0525 25.6964C13.1626 26.07 13.3392 26.3572 13.5671 26.564C13.7947 26.7705 14.0481 26.8738 14.2763 26.9196C14.5009 26.9646 14.7034 26.9547 14.8461 26.9356C14.9186 26.9259 14.9789 26.9134 15.0233 26.9026C15.0455 26.8972 15.064 26.8922 15.0782 26.8881L15.0964 26.8827L15.103 26.8806L15.1057 26.8797ZM12.3426 14.3843C12.418 14.2776 12.5538 14.2319 12.6783 14.2714L23.8828 17.8219C23.8828 17.8219 24.5294 18.0412 24.2446 18.253C24.2446 18.253 24.2636 18.373 23.8391 18.321C23.4362 18.2718 14.0705 17.2864 13.1228 17.1867C13.0681 17.1809 13.0194 17.191 12.9696 17.2145L9.02653 19.0796L12.3426 14.3843Z" fill="white"/>
</svg>
