<svg width="24" height="24" viewBox="0 0 24 24" fill="none" xmlns="http://www.w3.org/2000/svg">
<path fill-rule="evenodd" clip-rule="evenodd" d="M18.4831 19.7901L18.4838 19.7883L18.5011 19.7448L21.4999 4.62577V4.57666C21.4999 4.19996 21.3608 3.8711 21.0579 3.67384C20.7928 3.50118 20.488 3.48889 20.2743 3.50511C20.0483 3.52226 19.8352 3.57868 19.6876 3.62564C19.6117 3.6498 19.5482 3.67307 19.5028 3.69068C19.48 3.69952 19.4615 3.70702 19.448 3.7126L19.4348 3.71816L2.71502 10.2771L2.71042 10.2787C2.70139 10.282 2.68944 10.2865 2.67502 10.2921C2.64627 10.3033 2.60713 10.3193 2.56115 10.3402C2.47087 10.3811 2.34613 10.4442 2.21963 10.5308C2.00477 10.678 1.59566 11.0263 1.66474 11.5785C1.72196 12.0359 2.03727 12.3264 2.24983 12.4768C2.36378 12.5575 2.4728 12.6156 2.55262 12.6536C2.59307 12.6729 2.62743 12.6876 2.65302 12.698C2.66585 12.7032 2.67657 12.7074 2.68487 12.7106L2.6955 12.7145L2.70229 12.7171L5.62753 13.7019C5.61766 13.8854 5.63586 14.0725 5.68453 14.2572L7.14982 19.8156C7.32355 20.4746 7.91978 20.9337 8.60135 20.9332C9.21228 20.9328 9.75411 20.5632 9.98429 20.0118L12.272 17.5657L16.2009 20.5779L16.2568 20.6023C16.6138 20.7581 16.9473 20.8074 17.2522 20.7658C17.5567 20.7242 17.7987 20.5965 17.9804 20.4511C18.1593 20.308 18.2819 20.1465 18.359 20.0249C18.3981 19.9631 18.4273 19.9088 18.4476 19.8679C18.4578 19.8474 18.4658 19.8301 18.4718 19.8165L18.4793 19.7991L18.482 19.7927L18.4831 19.7901ZM7.13493 13.8748C7.10163 13.7485 7.15391 13.6151 7.2642 13.5451L17.1862 7.24417C17.1862 7.24417 17.7698 6.88987 17.7489 7.24417C17.7489 7.24417 17.8531 7.30673 17.5404 7.59846C17.2438 7.87554 10.4687 14.4166 9.78316 15.0785C9.74359 15.1167 9.71997 15.1605 9.70602 15.2137L8.60022 19.4332L7.13493 13.8748Z" fill="#C34622"/>
</svg>
